<svg width="46" height="46" viewBox="0 0 46 46" fill="none" xmlns="http://www.w3.org/2000/svg">
<path d="M23 4.3125C12.6796 4.3125 4.3125 12.6796 4.3125 23C4.3125 33.3204 12.6796 41.6875 23 41.6875C33.3204 41.6875 41.6875 33.3204 41.6875 23C41.6875 12.6796 33.3204 4.3125 23 4.3125Z" stroke="url(#paint0_linear)" stroke-width="2" stroke-linecap="round" stroke-linejoin="round"/>
<path d="M23 4.3125C17.7828 4.3125 12.8773 12.6796 12.8773 23C12.8773 33.3204 17.7828 41.6875 23 41.6875C28.2172 41.6875 33.1227 33.3204 33.1227 23C33.1227 12.6796 28.2172 4.3125 23 4.3125Z" stroke="url(#paint1_linear)" stroke-width="2" stroke-linecap="round" stroke-linejoin="round"/>
<path d="M10.5414 10.5414C13.977 12.9806 18.3021 14.4352 23 14.4352C27.6979 14.4352 32.023 12.9806 35.4586 10.5414" stroke="url(#paint2_linear)" stroke-width="2" stroke-linecap="round" stroke-linejoin="round"/>
<path d="M35.4586 35.4586C32.023 33.0194 27.6979 31.5648 23 31.5648C18.3021 31.5648 13.977 33.0194 10.5414 35.4586" stroke="url(#paint3_linear)" stroke-width="2" stroke-linecap="round" stroke-linejoin="round"/>
<path d="M23 4.3125V41.6875" stroke="url(#paint4_linear)" stroke-width="2" stroke-linecap="round" stroke-linejoin="round"/>
<path d="M41.6875 23H4.3125" stroke="url(#paint5_linear)" stroke-width="2" stroke-linecap="round" stroke-linejoin="round"/>
<defs>
<linearGradient id="paint0_linear" x1="42" y1="4" x2="3.99988" y2="4" gradientUnits="userSpaceOnUse">
<stop stop-color="#A754E2"/>
<stop offset="1" stop-color="#647DEE"/>
</linearGradient>
<linearGradient id="paint1_linear" x1="33.292" y1="4" x2="12.7079" y2="4" gradientUnits="userSpaceOnUse">
<stop stop-color="#A754E2"/>
<stop offset="1" stop-color="#647DEE"/>
</linearGradient>
<linearGradient id="paint2_linear" x1="35.667" y1="10.5088" x2="10.333" y2="10.5088" gradientUnits="userSpaceOnUse">
<stop stop-color="#A754E2"/>
<stop offset="1" stop-color="#647DEE"/>
</linearGradient>
<linearGradient id="paint3_linear" x1="35.667" y1="31.5323" x2="10.333" y2="31.5323" gradientUnits="userSpaceOnUse">
<stop stop-color="#A754E2"/>
<stop offset="1" stop-color="#647DEE"/>
</linearGradient>
<linearGradient id="paint4_linear" x1="24.0084" y1="4" x2="22.9916" y2="4" gradientUnits="userSpaceOnUse">
<stop stop-color="#A754E2"/>
<stop offset="1" stop-color="#647DEE"/>
</linearGradient>
<linearGradient id="paint5_linear" x1="42" y1="22.9916" x2="3.99988" y2="22.9916" gradientUnits="userSpaceOnUse">
<stop stop-color="#A754E2"/>
<stop offset="1" stop-color="#647DEE"/>
</linearGradient>
</defs>
</svg>
