<svg width="46" height="46" viewBox="0 0 46 46" fill="none" xmlns="http://www.w3.org/2000/svg">
<path d="M4.3125 30.1875L41.6875 30.1875C42.4814 30.1875 43.125 29.5439 43.125 28.75V8.625C43.125 7.83109 42.4814 7.1875 41.6875 7.1875L4.3125 7.1875C3.51859 7.1875 2.875 7.83109 2.875 8.625V28.75C2.875 29.5439 3.51859 30.1875 4.3125 30.1875Z" stroke="url(#paint0_linear)" stroke-width="2" stroke-linecap="round" stroke-linejoin="round"/>
<path d="M5.75 34.5H40.25" stroke="url(#paint1_linear)" stroke-width="2" stroke-linecap="round" stroke-linejoin="round"/>
<path d="M8.625 38.8125H37.375" stroke="url(#paint2_linear)" stroke-width="2" stroke-linecap="round" stroke-linejoin="round"/>
<path d="M23 25.875C26.9695 25.875 30.1875 22.657 30.1875 18.6875C30.1875 14.718 26.9695 11.5 23 11.5C19.0305 11.5 15.8125 14.718 15.8125 18.6875C15.8125 22.657 19.0305 25.875 23 25.875Z" stroke="url(#paint3_linear)" stroke-width="2" stroke-linecap="round" stroke-linejoin="round"/>
<path d="M43.125 14.375C41.2188 14.375 39.3906 13.6177 38.0427 12.2698C36.6948 10.9219 35.9375 9.09374 35.9375 7.1875" stroke="url(#paint4_linear)" stroke-width="2" stroke-linecap="round" stroke-linejoin="round"/>
<path d="M2.875 14.375C3.81888 14.375 4.75351 14.1891 5.62554 13.8279C6.49756 13.4667 7.28991 12.9373 7.95733 12.2698C8.62475 11.6024 9.15418 10.8101 9.51538 9.93804C9.87659 9.06601 10.0625 8.13138 10.0625 7.1875" stroke="url(#paint5_linear)" stroke-width="2" stroke-linecap="round" stroke-linejoin="round"/>
<path d="M43.125 23C41.2188 23 39.3906 23.7573 38.0427 25.1052C36.6948 26.4531 35.9375 28.2813 35.9375 30.1875" stroke="url(#paint6_linear)" stroke-width="2" stroke-linecap="round" stroke-linejoin="round"/>
<path d="M2.875 23C3.81888 23 4.75351 23.1859 5.62554 23.5471C6.49756 23.9083 7.28991 24.4377 7.95733 25.1052C8.62475 25.7726 9.15418 26.5649 9.51538 27.437C9.87659 28.309 10.0625 29.2436 10.0625 30.1875" stroke="url(#paint7_linear)" stroke-width="2" stroke-linecap="round" stroke-linejoin="round"/>
<defs>
<linearGradient id="paint0_linear" x1="2.53842" y1="30.3798" x2="43.4617" y2="30.3798" gradientUnits="userSpaceOnUse">
<stop stop-color="#A754E2"/>
<stop offset="1" stop-color="#647DEE"/>
</linearGradient>
<linearGradient id="paint1_linear" x1="40.5385" y1="34.4916" x2="5.46143" y2="34.4916" gradientUnits="userSpaceOnUse">
<stop stop-color="#A754E2"/>
<stop offset="1" stop-color="#647DEE"/>
</linearGradient>
<linearGradient id="paint2_linear" x1="37.6154" y1="38.8041" x2="8.38452" y2="38.8041" gradientUnits="userSpaceOnUse">
<stop stop-color="#A754E2"/>
<stop offset="1" stop-color="#647DEE"/>
</linearGradient>
<linearGradient id="paint3_linear" x1="30.3077" y1="11.3798" x2="15.6923" y2="11.3798" gradientUnits="userSpaceOnUse">
<stop stop-color="#A754E2"/>
<stop offset="1" stop-color="#647DEE"/>
</linearGradient>
<linearGradient id="paint4_linear" x1="43.1851" y1="7.1274" x2="35.8774" y2="7.1274" gradientUnits="userSpaceOnUse">
<stop stop-color="#A754E2"/>
<stop offset="1" stop-color="#647DEE"/>
</linearGradient>
<linearGradient id="paint5_linear" x1="10.1226" y1="7.1274" x2="2.81488" y2="7.1274" gradientUnits="userSpaceOnUse">
<stop stop-color="#A754E2"/>
<stop offset="1" stop-color="#647DEE"/>
</linearGradient>
<linearGradient id="paint6_linear" x1="43.1851" y1="22.9399" x2="35.8774" y2="22.9399" gradientUnits="userSpaceOnUse">
<stop stop-color="#A754E2"/>
<stop offset="1" stop-color="#647DEE"/>
</linearGradient>
<linearGradient id="paint7_linear" x1="10.1226" y1="22.9399" x2="2.81488" y2="22.9399" gradientUnits="userSpaceOnUse">
<stop stop-color="#A754E2"/>
<stop offset="1" stop-color="#647DEE"/>
</linearGradient>
</defs>
</svg>
