<svg width="46" height="46" viewBox="0 0 46 46" fill="none" xmlns="http://www.w3.org/2000/svg">
<path d="M35.0768 6.76342C34.9088 6.76385 34.7437 6.71917 34.5988 6.63405C30.6116 4.49936 27.1643 3.59374 23.0315 3.59374C18.9193 3.59374 15.0147 4.60717 11.4632 6.63405C10.9609 6.91795 10.3419 6.7203 10.0508 6.1992C9.9209 5.94769 9.89159 5.65616 9.96885 5.38382C10.0461 5.11147 10.2242 4.87876 10.4668 4.73295C14.2972 2.56051 18.6279 1.42464 23.0315 1.43749C27.4545 1.43749 31.3177 2.45092 35.5548 4.71499C35.802 4.85091 35.9861 5.0783 36.0675 5.34839C36.149 5.61848 36.1213 5.90973 35.9905 6.15967C35.9119 6.33712 35.784 6.48831 35.6221 6.59532C35.4601 6.70232 35.2709 6.76066 35.0768 6.76342ZM5.35739 18.0837C5.1416 18.0822 4.93149 18.0145 4.75544 17.8897C4.52639 17.7194 4.37235 17.467 4.32576 17.1854C4.27917 16.9039 4.34367 16.6152 4.50567 16.3803C6.5622 13.3615 9.17755 10.9897 12.2942 9.32936C18.8151 5.83983 27.1643 5.81467 33.7058 9.3078C36.8216 10.9681 39.4378 13.3184 41.4944 16.3156C41.6557 16.5508 41.7198 16.8392 41.6732 17.1206C41.6267 17.4019 41.4731 17.6543 41.2446 17.825C41.1337 17.9078 41.007 17.9671 40.8724 17.999C40.7377 18.0309 40.5979 18.0349 40.4617 18.0106C40.3254 17.9864 40.1956 17.9344 40.0802 17.858C39.9648 17.7816 39.8664 17.6823 39.7909 17.5662C37.9222 14.8494 35.5548 12.7147 32.7508 11.2269C26.7905 8.05717 19.1682 8.05717 13.2286 11.2484C10.4039 12.7578 8.03653 14.914 6.16778 17.6273C6.0872 17.7701 5.96909 17.8881 5.82624 17.9686C5.6834 18.049 5.52126 18.0888 5.35739 18.0837ZM18.3371 44.1133C18.1999 44.1146 18.0639 44.0864 17.9385 44.0306C17.8131 43.9748 17.7012 43.8927 17.6103 43.7898C15.8035 41.9103 14.8242 40.6992 13.4361 38.0937C11.9986 35.4415 11.2556 32.2072 11.2556 28.7356C11.2556 22.3315 16.5304 17.1134 23.0108 17.1134C29.4912 17.1134 34.7695 22.3315 34.7695 28.7356C34.7736 28.8745 34.7498 29.0128 34.6995 29.1423C34.6491 29.2719 34.5733 29.39 34.4765 29.4897C34.3797 29.5894 34.2639 29.6686 34.1359 29.7227C34.0079 29.7769 33.8704 29.8047 33.7314 29.8047C33.5924 29.8047 33.4549 29.7769 33.3269 29.7227C33.1989 29.6686 33.0831 29.5894 32.9863 29.4897C32.8895 29.39 32.8137 29.2719 32.7633 29.1423C32.713 29.0128 32.6892 28.8745 32.6933 28.7356C32.6933 23.5175 28.352 19.2697 23.0153 19.2697C17.6786 19.2697 13.3328 23.5175 13.3328 28.7356C13.3328 31.8406 13.9968 34.7084 15.2636 37.0372C16.5933 39.5169 17.5097 40.5734 19.1062 42.2553C19.2955 42.4646 19.4004 42.7367 19.4004 43.019C19.4004 43.3012 19.2955 43.5733 19.1062 43.7826C18.9023 43.9883 18.6266 44.1068 18.3371 44.1133ZM33.2287 40.1242C30.7571 40.1242 28.5766 39.4773 26.7905 38.2051C25.2688 37.1385 24.0257 35.722 23.1657 34.0746C22.3058 32.4273 21.8543 30.5975 21.8491 28.7392C21.8433 28.5992 21.8658 28.4594 21.9154 28.3283C21.965 28.1972 22.0405 28.0775 22.1376 27.9764C22.2346 27.8753 22.351 27.7948 22.4799 27.7398C22.6089 27.6848 22.7476 27.6565 22.8877 27.6565C23.0279 27.6565 23.1666 27.6848 23.2955 27.7398C23.4244 27.7948 23.5408 27.8753 23.6379 27.9764C23.7349 28.0775 23.8104 28.1972 23.86 28.3283C23.9096 28.4594 23.9321 28.5992 23.9263 28.7392C23.9298 30.2486 24.2979 31.7348 24.9993 33.0713C25.7008 34.4078 26.7147 35.5551 27.9549 36.4155C29.4292 37.4505 31.1533 37.9428 33.2305 37.9428C33.954 37.9299 34.6751 37.8578 35.3868 37.7272C35.9474 37.6194 36.4874 38.0075 36.5907 38.6112C36.6433 38.8899 36.5833 39.178 36.4238 39.4124C36.2643 39.6469 36.0183 39.8085 35.7399 39.8619C34.9126 40.0253 34.072 40.1119 33.2287 40.1206V40.1242ZM29.0537 44.5625C28.9625 44.5587 28.872 44.5442 28.7842 44.5194C25.4815 43.5706 23.3217 42.2984 21.0576 39.9912C18.1493 36.994 16.551 33.005 16.551 28.7356C16.551 25.2425 19.417 22.3962 22.947 22.3962C26.477 22.3962 29.3439 25.2425 29.3439 28.7356C29.3439 31.0428 31.2755 32.9187 33.6636 32.9187C36.0516 32.9187 37.9833 31.0428 37.9833 28.7356C37.9833 20.6065 31.2333 14.0084 22.9263 14.0084C17.0281 14.0084 11.6285 17.4153 9.19911 22.6981C8.39052 24.4447 7.97364 26.4931 7.97364 28.7356C7.97364 30.4175 8.11829 33.0697 9.36442 36.5197C9.57286 37.0803 9.30243 37.7056 8.76247 37.8997C8.63415 37.9485 8.49727 37.971 8.36006 37.9656C8.22285 37.9602 8.08814 37.9272 7.96403 37.8684C7.83991 37.8097 7.72896 37.7265 7.63782 37.6238C7.54668 37.5211 7.47724 37.401 7.43368 37.2708C6.43162 34.5366 5.91828 31.6476 5.91712 28.7356C5.91712 26.1481 6.39509 23.7942 7.32946 21.7494C10.0922 15.7298 16.2186 11.8306 22.9263 11.8306C32.3761 11.8306 40.0604 19.399 40.0604 28.714C40.0604 32.2072 37.1944 35.0534 33.6636 35.0534C30.1327 35.0534 27.2667 32.2072 27.2667 28.714C27.2676 26.4069 25.336 24.5273 22.9479 24.5273C20.5599 24.5273 18.6282 26.4033 18.6282 28.7105C18.6282 32.394 19.9992 35.8476 22.5122 38.4351C24.4887 40.462 26.3754 41.5797 29.3035 42.4242C29.8641 42.5751 30.1758 43.1789 30.0303 43.7395C29.9849 43.9671 29.8636 44.1725 29.6861 44.322C29.5087 44.4716 29.2857 44.5564 29.0537 44.5625Z" fill="url(#paint0_linear)"/>
<defs>
<linearGradient id="paint0_linear" x1="42" y1="23" x2="4" y2="23" gradientUnits="userSpaceOnUse">
<stop stop-color="#A754E2"/>
<stop offset="1" stop-color="#647DEE"/>
</linearGradient>
</defs>
</svg>
