<svg width="46" height="46" viewBox="0 0 46 46" fill="none" xmlns="http://www.w3.org/2000/svg">
<path d="M28.75 41.1628C28.75 41.1628 27.3125 41.6875 23 41.6875C18.6875 41.6875 16.3516 40.25 14.375 38.8125H8.625C7.10001 38.8125 5.63747 38.2067 4.55914 37.1284C3.4808 36.05 2.875 34.5875 2.875 33.0625V28.75C2.875 27.225 3.4808 25.7625 4.55914 24.6841C5.63747 23.6058 7.10001 23 8.625 23H11.3203C11.814 22.9973 12.2988 22.8688 12.729 22.6267C13.1593 22.3846 13.5208 22.0369 13.7793 21.6164C13.7793 21.6164 14.5547 19.9282 16.8906 15.8826C19.2266 11.8369 23.7188 5.75 24.4375 4.3125C27.043 4.3125 28.3008 6.28906 27.4922 8.59895C26.5686 11.2395 25.362 13.4846 25.0251 16.4234C24.9766 16.8529 25.3072 17.5016 25.7393 17.5016L37.375 18.418" stroke="url(#paint0_linear)" stroke-width="2" stroke-linecap="round" stroke-linejoin="round"/>
<path d="M37.375 24.3477L30.1875 24.168C28.3906 24.0027 27.3125 23.0539 27.3125 21.4727C27.3125 19.8914 28.5703 18.8816 30.1875 18.7773L37.375 18.418C38.9563 18.418 40.25 19.8914 40.25 21.4727V21.4879C40.246 22.2478 39.9413 22.9751 39.4026 23.511C38.8638 24.0469 38.1349 24.3477 37.375 24.3477Z" stroke="url(#paint1_linear)" stroke-width="2" stroke-linecap="round" stroke-linejoin="round"/>
<path d="M40.25 30.1875L30.1875 30.0078C28.5703 29.9323 27.3125 28.8929 27.3125 27.3125C27.3125 25.7304 28.5703 24.7196 30.1875 24.6172L40.25 24.4375C41.0118 24.4399 41.7417 24.7435 42.2803 25.2822C42.819 25.8208 43.1226 26.5507 43.125 27.3125V27.3125C43.1226 28.0743 42.819 28.8042 42.2803 29.3428C41.7417 29.8815 41.0118 30.1851 40.25 30.1875V30.1875Z" stroke="url(#paint2_linear)" stroke-width="2" stroke-linecap="round" stroke-linejoin="round"/>
<path d="M35.9375 41.6875L30.1875 41.418C28.3008 41.2527 27.3125 40.3938 27.3125 38.8125C27.3125 37.2312 28.6062 36.1172 30.1875 36.1172L35.9375 35.9375C36.6993 35.9396 37.4294 36.2432 37.9681 36.7819C38.5068 37.3206 38.8104 38.0507 38.8125 38.8125V38.8125C38.8104 39.5743 38.5068 40.3044 37.9681 40.8431C37.4294 41.3818 36.6993 41.6854 35.9375 41.6875V41.6875Z" stroke="url(#paint3_linear)" stroke-width="2" stroke-linecap="round" stroke-linejoin="round"/>
<path d="M38.8125 35.9375L30.1875 35.7578C28.4805 35.6823 27.3125 34.6438 27.3125 33.0625C27.3125 31.4812 28.4805 30.4714 30.1875 30.3672L38.8125 30.1875C39.5743 30.1896 40.3044 30.4932 40.8431 31.0319C41.3818 31.5706 41.6854 32.3007 41.6875 33.0625V33.0625C41.6854 33.8243 41.3818 34.5544 40.8431 35.0931C40.3044 35.6318 39.5743 35.9354 38.8125 35.9375Z" stroke="url(#paint4_linear)" stroke-width="2" stroke-linecap="round" stroke-linejoin="round"/>
<defs>
<linearGradient id="paint0_linear" x1="37.6635" y1="4" x2="2.58643" y2="4" gradientUnits="userSpaceOnUse">
<stop stop-color="#A754E2"/>
<stop offset="1" stop-color="#647DEE"/>
</linearGradient>
<linearGradient id="paint1_linear" x1="40.3582" y1="18.3684" x2="27.2043" y2="18.3684" gradientUnits="userSpaceOnUse">
<stop stop-color="#A754E2"/>
<stop offset="1" stop-color="#647DEE"/>
</linearGradient>
<linearGradient id="paint2_linear" x1="43.2572" y1="24.3894" x2="27.1802" y2="24.3894" gradientUnits="userSpaceOnUse">
<stop stop-color="#A754E2"/>
<stop offset="1" stop-color="#647DEE"/>
</linearGradient>
<linearGradient id="paint3_linear" x1="38.9087" y1="35.8894" x2="27.2163" y2="35.8894" gradientUnits="userSpaceOnUse">
<stop stop-color="#A754E2"/>
<stop offset="1" stop-color="#647DEE"/>
</linearGradient>
<linearGradient id="paint4_linear" x1="41.8077" y1="30.1394" x2="27.1923" y2="30.1394" gradientUnits="userSpaceOnUse">
<stop stop-color="#A754E2"/>
<stop offset="1" stop-color="#647DEE"/>
</linearGradient>
</defs>
</svg>
